{"title":"Fort.Tilden.2014.WEBScr.x264-MenaceIISociety","uid":12163170,"size":759537035,"categoryP":"video","categoryS":"movies","magnet":"?xt=urn:btih:ac9b957bfb70f1583a3847ada57c191cc2a78efa&amp;dn=Fort.Tilden.2014.WEBScr.x264-MenaceIISociety&amp;tr=udp%3A%2F%2Ftracker.openbittorrent.com%3A80&amp;tr=udp%3A%2F%2Fopen.demonii.com%3A1337&amp;tr=udp%3A%2F%2Ftracker.coppersurfer.tk%3A6969&amp;tr=udp%3A%2F%2Fexodus.desync.com%3A6969","seeders":0,"leechers":0,"uploader":"TvTeam","files":4,"time":1437962786,"description":"------------------------------------------------------------------------\n\n &lt;a href=&quot; https://www.torrenting.com&quot; rel=&quot;nofollow&quot; target=&quot;_NEW&quot;&gt; https://www.torrenting.com&lt;/a&gt;\n\nSign up is OPEN - for time being. Come and have fun\n\nFort.Tilden.2014.WEBScr.x264-MenaceIISociety &lt;a href=&quot;\nhttp://www.imdb.com/title/tt3457734/&quot; rel=&quot;nofollow&quot; target=&quot;_NEW&quot;&gt;\nhttp://www.imdb.com/title/tt3457734/&lt;/a&gt;\n\nSource: 720p.Fort Tilden.2014.Web.Screener [THANKS]\n\nFound this on the web, didnt want to rename it as something else so webscr it is, enjoy.\n\nGeneral\nComplete name                            : Fort.Tilden.2014.WEBScr.x264-MenaceIISociety.mp4\nFormat                                   : MPEG-4\nFormat profile                           : Base Media\nCodec ID                                 : isom\nFile size                                : 704 MiB\nDuration                                 : 1h 37mn\nOverall bit rate mode                    : Variable\nOverall bit rate                         : 1 005 Kbps\nEncoded date                             : UTC 2015-07-26 23:32:23\nTagged date                              : UTC 2015-07-26 23:32:23\n\nVideo\nID                                       : 1\nFormat                                   : AVC\nFormat/Info                              : Advanced Video Codec\nFormat profile                           : &lt;a class=&quot;__cf_email__&quot; href=&quot;/cdn-cgi/l/email-protection&quot; data-cfemail=&quot;fcb4959b94bcb0c8d2cd&quot;&gt;[email&amp;#160;protected]&lt;/a&gt;&lt;script data-cfhash='f9e31' type=&quot;text/javascript&quot;&gt;\n/* &lt;![CDATA[ */!function(){try{var t=&quot;currentScript&quot;in document?document.currentScript:function(){for(var t=document.getElementsByTagName(&quot;script&quot;),e=t.length;e--;)if(t[e].getAttribute(&quot;data-cfhash&quot;))return t[e]}();if(t&amp;&amp;t.previousSibling){var e,r,n,i,c=t.previousSibling,a=c.getAttribute(&quot;data-cfemail&quot;);if(a){for(e=&quot;&quot;,r=parseInt(a.substr(0,2),16),n=2;a.length-n;n+=2)i=parseInt(a.substr(n,2),16)^r,e+=String.fromCharCode(i);e=document.createTextNode(e),c.parentNode.replaceChild(e,c)}t.parentNode.removeChild(t);}}catch(u){}}()/* ]]&gt; */&lt;/script&gt;\nFormat settings, CABAC                   : Yes\nFormat settings, ReFrames                : 3 frames\nCodec ID                                 : avc1\nCodec ID/Info                            : Advanced Video Coding\nDuration                                 : 1h 37mn\nBit rate mode                            : Variable\nBit rate                                 : 877 Kbps\nMaximum bit rate                         : 40.0 Mbps\nWidth                                    : 720 pixels\nHeight                                   : 304 pixels\nDisplay aspect ratio                     : 2.35:1\nFrame rate mode                          : Constant\nFrame rate                               : 23.976 fps\nColor space                              : YUV\nChroma subsampling                       : 4:2:0\nBit depth                                : 8 bits\nScan type                                : Progressive\nBits/(Pixel*Frame)                       : 0.167\nStream size                              : 614 MiB (87%)\nWriting library                          : x264 core 146 r2538 121396c\n\nAudio\nID                                       : 2\nFormat                                   : AAC\nFormat/Info                              : Advanced Audio Codec\nFormat profile                           : LC\nCodec ID                                 : 40\nDuration                                 : 1h 37mn\nBit rate mode                            : Variable\nBit rate                                 : 124 Kbps\nMaximum bit rate                         : 172 Kbps\nChannel(s)                               : 2 channels\nChannel positions                        : Front: L R\nSampling rate                            : 48.0 KHz\nCompression mode                         : Lossy\nStream size                              : 86.5 MiB (12%)\nLanguage                                 : English\nEncoded date                             : UTC 2015-07-26 22:48:40\nTagged date                              : UTC 2015-07-26 23:35:52\n\n[img]http://s11.postimg.org/8sx7gjboj/vlcsnap_2015_07_27_01h41m47s069.jpg[/img]\n[img]http://s11.postimg.org/b1fzbm86b/vlcsnap_2015_07_27_01h42m06s933.jpg[/img]\n[img]http://s11.postimg.org/d4qeja7z7/vlcsnap_2015_07_27_01h42m37s681.jpg[/img]\n[img]http://s11.postimg.org/9jpxmbe1v/vlcsnap_2015_07_27_01h42m54s234.jpg[/img]\n[img]http://s11.postimg.org/7j3zf87ab/vlcsnap_2015_07_27_01h43m07s301.jpg[/img] \n\n[img]http://s17.postimg.org/r1iiyw8yn/Untitled_1.png[/img]","torrent":{"xt":"urn:btih:ac9b957bfb70f1583a3847ada57c191cc2a78efa","amp;dn":"Fort.Tilden.2014.WEBScr.x264-MenaceIISociety","amp;tr":["udp%3A%2F%2Ftracker.openbittorrent.com%3A80","udp%3A%2F%2Fopen.demonii.com%3A1337","udp%3A%2F%2Ftracker.coppersurfer.tk%3A6969","udp%3A%2F%2Fexodus.desync.com%3A6969"],"infoHash":"ac9b957bfb70f1583a3847ada57c191cc2a78efa","infoHashBuffer":{"type":"Buffer","data":[172,155,149,123,251,112,241,88,58,56,71,173,165,124,25,28,194,167,142,250]},"announce":[],"urlList":[]}}